 <svg version="1.0" xmlns="http://www.w3.org/2000/svg"  width="200.000000pt" height="200.000000pt" viewBox="0 0 200.000000 200.000000"  preserveAspectRatio="xMidYMid meet">  <g transform="translate(0.000000,200.000000) scale(0.100000,-0.100000)" fill="#087efd" stroke="none"> <path d="M404 1375 c-6 -25 -7 -45 -3 -45 4 0 9 6 12 13 11 31 19 -12 24 -125 4 -112 3 -126 -16 -155 -28 -44 -82 -48 -159 -11 -43 20 -162 122 -162 138 0 5 10 12 22 16 20 6 19 7 -10 20 -18 7 -35 20 -38 29 -8 19 -24 20 -24 1 0 -8 -12 -24 -26 -35 -18 -14 -22 -21 -11 -21 9 0 25 -11 35 -25 12 -14 23 -21 27 -16 3 6 32 -16 65 -49 64 -64 123 -105 164 -116 14 -3 26 -8 26 -11 0 -3 -18 -26 -40 -51 -46 -52 -50 -85 -11 -90 32 -5 151 27 151 40 0 5 -8 7 -17 4 -97 -28 -133 -28 -133 -2 0 7 15 30 34 52 27 32 41 40 69 41 43 1 56 8 67 38 14 37 150 60 150 25 0 -5 -12 -23 -26 -40 -15 -17 -24 -33 -21 -36 8 -9 78 80 75 96 -4 17 -78 21 -133 7 l-30 -8 3 78 c4 73 -7 163 -24 207 -6 16 -4 18 9 13 25 -10 21 6 -11 36 l-28 26 -10 -44z"/> <path d="M773 1359 c-63 -13 -93 -59 -93 -143 0 -47 4 -60 30 -90 69 -78 192 -49 220 52 30 112 -51 204 -157 181z m90 -71 c25 -30 23 -105 -5 -135 -67 -71 -161 25 -117 121 22 48 86 56 122 14z"/> <path d="M1190 1241 c0 -66 3 -126 6 -135 4 -11 19 -16 45 -16 32 0 39 4 39 19 0 11 -8 21 -17 23 -15 3 -18 15 -20 65 -1 52 2 62 18 66 25 7 24 23 -2 30 -15 4 -20 11 -15 23 8 21 -10 44 -35 44 -18 0 -19 -9 -19 -119z"/> <path d="M1302 1338 c2 -17 11 -24 31 -26 18 -2 27 1 27 10 0 20 -21 38 -43 38 -13 0 -18 -6 -15 -22z"/> <path d="M1405 1335 c-27 -26 -32 -70 -12 -97 7 -9 37 -23 67 -32 70 -21 83 -29 78 -52 -5 -29 -83 -33 -100 -5 -14 23 -58 29 -58 7 0 -27 41 -65 76 -72 45 -8 110 11 124 36 13 24 13 66 0 90 -6 11 -29 24 -53 30 -93 24 -113 40 -85 68 19 19 63 14 83 -8 18 -20 65 -28 65 -11 0 5 -12 23 -26 40 -23 28 -32 31 -80 31 -45 0 -59 -4 -79 -25z"/> <path d="M1832 1225 l1 -135 28 0 29 0 0 129 c0 108 -3 130 -16 135 -42 16 -43 12 -42 -129z"/> <path d="M1008 1284 c-33 -17 -36 -28 -41 -167 l-4 -108 26 3 c24 3 26 7 25 51 0 26 1 47 2 47 1 0 14 -6 28 -14 64 -33 120 21 113 108 -7 83 -76 120 -149 80z m82 -44 c22 -22 25 -46 10 -84 -17 -45 -75 -31 -80 19 -4 36 0 53 16 69 20 21 30 20 54 -4z"/> <path d="M1664 1288 c-50 -24 -61 -131 -19 -173 35 -36 105 -35 134 1 21 27 29 102 15 139 -14 36 -86 55 -130 33z m67 -38 c26 -14 27 -90 1 -113 -16 -15 -20 -15 -40 -1 -27 18 -31 84 -6 108 18 19 20 19 45 6z"/> <path d="M1300 1191 l0 -101 29 0 28 0 -1 98 -1 97 -27 3 -28 3 0 -100z"/> <path d="M316 1173 c-11 -11 -6 -69 6 -81 22 -22 48 -14 48 14 0 43 -35 86 -54 67z"/> <path d="M679 964 c-11 -14 -10 -18 6 -30 10 -8 25 -14 32 -14 7 0 13 -4 13 -10 0 -14 -33 -12 -49 3 -10 10 -12 8 -9 -8 4 -26 50 -32 68 -9 12 14 12 18 -5 30 -10 8 -25 14 -32 14 -7 0 -13 5 -13 11 0 7 11 8 32 3 29 -6 31 -5 19 10 -17 20 -45 21 -62 0z"/> <path d="M840 930 c0 -27 5 -50 10 -50 6 0 10 23 10 50 0 28 -4 50 -10 50 -5 0 -10 -22 -10 -50z"/> <path d="M990 970 c0 -5 7 -10 15 -10 8 0 15 5 15 10 0 6 -7 10 -15 10 -8 0 -15 -4 -15 -10z"/> <path d="M1329 971 c-4 -47 -1 -81 6 -81 11 0 14 80 3 86 -4 3 -8 0 -9 -5z"/> <path d="M1429 964 c-11 -14 -10 -18 6 -30 10 -8 25 -14 32 -14 7 0 13 -4 13 -10 0 -14 -33 -12 -49 3 -10 10 -12 8 -9 -8 4 -26 50 -32 68 -9 12 14 12 18 -5 30 -10 8 -25 14 -32 14 -7 0 -13 5 -13 11 0 7 11 8 32 3 29 -6 31 -5 19 10 -17 20 -45 21 -62 0z"/> <path d="M956 962 c-7 -12 5 -82 14 -82 8 0 5 79 -3 87 -3 2 -8 0 -11 -5z"/> <path d="M775 946 c-23 -17 -16 -60 11 -64 26 -4 48 21 39 47 -8 25 -29 33 -50 17z m31 -42 c-5 -13 -10 -14 -18 -6 -6 6 -8 18 -4 28 5 13 10 14 18 6 6 -6 8 -18 4 -28z"/> <path d="M1046 947 c-27 -20 -18 -62 14 -62 19 0 26 6 28 26 4 34 -18 53 -42 36z m31 -22 c7 -20 -2 -29 -21 -22 -9 4 -13 13 -10 22 8 19 23 19 31 0z"/> <path d="M1128 952 c-13 -2 -18 -13 -18 -38 0 -19 5 -34 11 -34 5 0 9 8 8 18 -3 29 1 42 11 42 6 0 10 -13 10 -30 0 -16 5 -30 10 -30 14 0 12 56 -2 67 -7 5 -21 8 -30 5z"/> <path d="M1194 946 c-17 -13 -17 -14 4 -27 28 -18 28 -29 0 -22 -18 5 -20 3 -12 -7 7 -6 20 -10 30 -8 23 4 32 38 10 38 -8 0 -18 5 -22 11 -4 8 0 9 15 4 11 -3 21 -2 21 3 0 17 -27 21 -46 8z"/> <path d="M1525 946 c-27 -20 -13 -66 20 -66 14 0 25 5 25 11 0 6 -7 9 -15 6 -8 -4 -17 -2 -20 3 -4 6 3 10 14 10 28 0 34 15 13 34 -16 13 -21 14 -37 2z"/> <path d="M1755 944 c-17 -17 -19 -33 -6 -52 10 -16 42 -13 48 5 3 7 -3 9 -17 6 -18 -5 -21 -2 -18 13 2 11 11 18 21 16 21 -4 23 14 2 22 -8 3 -21 -2 -30 -10z"/> <path d="M1824 939 c-14 -15 -16 -24 -8 -37 14 -22 43 -27 58 -12 8 10 6 12 -11 7 -13 -3 -26 -1 -29 4 -3 5 6 9 20 9 30 0 33 12 10 34 -19 20 -17 20 -40 -5z"/> <path d="M1900 945 c-14 -16 -6 -35 16 -35 8 0 14 -5 14 -11 0 -6 -9 -8 -21 -4 -15 5 -19 4 -15 -4 9 -14 43 -14 52 0 4 7 -4 20 -17 31 l-24 19 25 -7 c22 -6 23 -5 11 10 -17 20 -25 20 -41 1z"/> <path d="M881 917 c-1 -36 1 -38 27 -35 22 2 28 8 30 36 4 39 -15 44 -20 5 -4 -37 -21 -36 -29 2 -6 29 -7 28 -8 -8z"/> <path d="M998 920 c-3 -17 -1 -33 4 -36 4 -3 8 11 8 30 0 44 -6 47 -12 6z"/> <path d="M1590 915 c0 -19 5 -35 10 -35 6 0 10 10 10 23 0 13 5 28 12 35 9 9 7 12 -10 12 -18 0 -22 -6 -22 -35z"/> <path d="M1640 941 c0 -19 20 -61 29 -61 5 0 11 8 14 18 2 9 8 25 12 35 11 25 -10 21 -23 -5 -8 -18 -11 -19 -11 -6 -1 18 -21 36 -21 19z"/> <path d="M1710 915 c0 -19 5 -35 10 -35 6 0 10 16 10 35 0 19 -4 35 -10 35 -5 0 -10 -16 -10 -35z"/> </g> </svg> 